<?xml version="1.0" encoding="UTF-8" standalone="no"?><svg xmlns="http://www.w3.org/2000/svg" xmlns:xlink="http://www.w3.org/1999/xlink" contentScriptType="application/ecmascript" contentStyleType="text/css" height="1204px" preserveAspectRatio="none" style="width:1272px;height:1204px;" version="1.1" viewBox="0 0 1272 1204" width="1272px" zoomAndPan="magnify"><defs><filter height="300%" id="f1yuzsevt4b88" width="300%" x="-1" y="-1"><feGaussianBlur result="blurOut" stdDeviation="2.0"/><feColorMatrix in="blurOut" result="blurOut2" type="matrix" values="0 0 0 0 0 0 0 0 0 0 0 0 0 0 0 0 0 0 .4 0"/><feOffset dx="4.0" dy="4.0" in="blurOut2" result="blurOut3"/><feBlend in="SourceGraphic" in2="blurOut3" mode="normal"/></filter></defs><g><text fill="#000000" font-family="sans-serif" font-size="18" lengthAdjust="spacingAndGlyphs" textLength="234" x="514.5" y="26.708">Reporting fault by the app</text><rect fill="#DDDDDD" height="1154.7344" style="stroke: #A80036; stroke-width: 1.0;" width="911.5" x="19" y="38.9531"/><text fill="#000000" font-family="sans-serif" font-size="13" font-weight="bold" lengthAdjust="spacingAndGlyphs" textLength="93" x="428.25" y="51.02">App Process</text><rect fill="#DDDDDD" height="1154.7344" style="stroke: #A80036; stroke-width: 1.0;" width="156" x="976" y="38.9531"/><text fill="#000000" font-family="sans-serif" font-size="13" font-weight="bold" lengthAdjust="spacingAndGlyphs" textLength="96" x="1006" y="51.02">DFM Process</text><rect fill="#FFFFFF" filter="url(#f1yuzsevt4b88)" height="206.9609" style="stroke: #000000; stroke-width: 2.0;" width="593" x="13" y="283.3438"/><rect fill="#FFFFFF" height="160.6953" style="stroke: none; stroke-width: 1.0;" width="593" x="13" y="329.6094"/><rect fill="#FFFFFF" filter="url(#f1yuzsevt4b88)" height="503.3906" style="stroke: #000000; stroke-width: 2.0;" width="1237" x="13" y="618.7031"/><rect fill="#FFFFFF" height="472.2578" style="stroke: none; stroke-width: 1.0;" width="1237" x="13" y="649.8359"/><line style="stroke: #A80036; stroke-width: 1.0; stroke-dasharray: 5.0,5.0;" x1="65" x2="65" y1="109.6797" y2="1139.0938"/><line style="stroke: #A80036; stroke-width: 1.0; stroke-dasharray: 5.0,5.0;" x1="349.5" x2="349.5" y1="364.2578" y2="1139.0938"/><line style="stroke: #A80036; stroke-width: 1.0; stroke-dasharray: 5.0,5.0;" x1="540" x2="540" y1="109.6797" y2="1139.0938"/><line style="stroke: #A80036; stroke-width: 1.0; stroke-dasharray: 5.0,5.0;" x1="828.5" x2="828.5" y1="109.6797" y2="1139.0938"/><line style="stroke: #A80036; stroke-width: 1.0; stroke-dasharray: 5.0,5.0;" x1="1054" x2="1054" y1="109.6797" y2="1139.0938"/><rect fill="#FEFECE" filter="url(#f1yuzsevt4b88)" height="30.2969" style="stroke: #A80036; stroke-width: 1.5;" width="41" x="43" y="74.3828"/><text fill="#000000" font-family="sans-serif" font-size="14" lengthAdjust="spacingAndGlyphs" textLength="27" x="50" y="94.3779">App</text><rect fill="#FEFECE" filter="url(#f1yuzsevt4b88)" height="30.2969" style="stroke: #A80036; stroke-width: 1.5;" width="41" x="43" y="1138.0938"/><text fill="#000000" font-family="sans-serif" font-size="14" lengthAdjust="spacingAndGlyphs" textLength="27" x="50" y="1158.0889">App</text><rect fill="#FEFECE" filter="url(#f1yuzsevt4b88)" height="30.2969" style="stroke: #A80036; stroke-width: 1.5;" width="75" x="310.5" y="1138.0938"/><text fill="#000000" font-family="sans-serif" font-size="14" lengthAdjust="spacingAndGlyphs" textLength="61" x="317.5" y="1158.0889">Reporter</text><rect fill="#FEFECE" filter="url(#f1yuzsevt4b88)" height="30.2969" style="stroke: #A80036; stroke-width: 1.5;" width="68" x="504" y="74.3828"/><text fill="#000000" font-family="sans-serif" font-size="14" lengthAdjust="spacingAndGlyphs" textLength="54" x="511" y="94.3779">FaultApi</text><rect fill="#FEFECE" filter="url(#f1yuzsevt4b88)" height="30.2969" style="stroke: #A80036; stroke-width: 1.5;" width="68" x="504" y="1138.0938"/><text fill="#000000" font-family="sans-serif" font-size="14" lengthAdjust="spacingAndGlyphs" textLength="54" x="511" y="1158.0889">FaultApi</text><rect fill="#FEFECE" filter="url(#f1yuzsevt4b88)" height="46.5938" style="stroke: #A80036; stroke-width: 1.5;" width="151" x="751.5" y="58.0859"/><text fill="#000000" font-family="sans-serif" font-size="14" lengthAdjust="spacingAndGlyphs" textLength="69" x="792.5" y="78.0811">IpcWorker</text><text fill="#000000" font-family="sans-serif" font-size="14" lengthAdjust="spacingAndGlyphs" textLength="137" x="758.5" y="94.3779">(fault_client_worker)</text><rect fill="#FEFECE" filter="url(#f1yuzsevt4b88)" height="46.5938" style="stroke: #A80036; stroke-width: 1.5;" width="151" x="751.5" y="1138.0938"/><text fill="#000000" font-family="sans-serif" font-size="14" lengthAdjust="spacingAndGlyphs" textLength="69" x="792.5" y="1158.0889">IpcWorker</text><text fill="#000000" font-family="sans-serif" font-size="14" lengthAdjust="spacingAndGlyphs" textLength="137" x="758.5" y="1174.3857">(fault_client_worker)</text><rect fill="#FEFECE" filter="url(#f1yuzsevt4b88)" height="30.2969" style="stroke: #A80036; stroke-width: 1.5;" width="104" x="1000" y="74.3828"/><text fill="#000000" font-family="sans-serif" font-size="14" lengthAdjust="spacingAndGlyphs" textLength="90" x="1007" y="94.3779">DiagFaultMgr</text><rect fill="#FEFECE" filter="url(#f1yuzsevt4b88)" height="30.2969" style="stroke: #A80036; stroke-width: 1.5;" width="104" x="1000" y="1138.0938"/><text fill="#000000" font-family="sans-serif" font-size="14" lengthAdjust="spacingAndGlyphs" textLength="90" x="1007" y="1158.0889">DiagFaultMgr</text><a href="fault_catalog.svg Fault Catalog Init" target="_top" title="fault_catalog.svg Fault Catalog Init" xlink:actuate="onRequest" xlink:href="fault_catalog.svg Fault Catalog Init" xlink:show="new" xlink:title="fault_catalog.svg Fault Catalog Init" xlink:type="simple"><rect fill="#FFFFFF" filter="url(#f1yuzsevt4b88)" height="25.1328" style="stroke: #000000; stroke-width: 2.0;" width="646" x="481" y="119.6797"/><polygon fill="#EEEEEE" points="481,119.6797,547,119.6797,547,126.6797,537,136.6797,481,136.6797,481,119.6797" style="stroke: #000000; stroke-width: 2.0;"/><text fill="#000000" font-family="sans-serif" font-size="13" font-weight="bold" lengthAdjust="spacingAndGlyphs" textLength="21" x="494" y="133.7466">ref</text></a><rect fill="#EEEEEE" filter="url(#f1yuzsevt4b88)" height="3" style="stroke: #EEEEEE; stroke-width: 1.0;" width="1257" x="3" y="170.3789"/><line style="stroke: #000000; stroke-width: 1.0;" x1="3" x2="1260" y1="170.3789" y2="170.3789"/><line style="stroke: #000000; stroke-width: 1.0;" x1="3" x2="1260" y1="173.3789" y2="173.3789"/><rect fill="#EEEEEE" filter="url(#f1yuzsevt4b88)" height="23.1328" style="stroke: #000000; stroke-width: 2.0;" width="79" x="592" y="159.8125"/><text fill="#000000" font-family="sans-serif" font-size="13" font-weight="bold" lengthAdjust="spacingAndGlyphs" textLength="60" x="598" y="175.8794">Start up</text><polygon fill="#A80036" points="528,210.0781,538,214.0781,528,218.0781,532,214.0781" style="stroke: #A80036; stroke-width: 1.0;"/><line style="stroke: #A80036; stroke-width: 1.0;" x1="65.5" x2="534" y1="214.0781" y2="214.0781"/><text fill="#000000" font-family="sans-serif" font-size="13" lengthAdjust="spacingAndGlyphs" textLength="198" x="72.5" y="209.0122">FaultApi::try_new(catalog, sink)</text><path d="M545,227.0781 L545,267.0781 L825,267.0781 L825,237.0781 L815,227.0781 L545,227.0781 " fill="#FBFB77" filter="url(#f1yuzsevt4b88)" style="stroke: #A80036; stroke-width: 1.0;"/><path d="M815,227.0781 L815,237.0781 L825,237.0781 L815,227.0781 " fill="#FBFB77" style="stroke: #A80036; stroke-width: 1.0;"/><text fill="#000000" font-family="sans-serif" font-size="13" lengthAdjust="spacingAndGlyphs" textLength="259" x="551" y="244.145">This diagram does not consider the case</text><text fill="#000000" font-family="sans-serif" font-size="13" lengthAdjust="spacingAndGlyphs" textLength="241" x="551" y="259.2778">when the fault doesn't exist in catalog</text><path d="M13,283.3438 L77,283.3438 L77,290.3438 L67,300.3438 L13,300.3438 L13,283.3438 " fill="#EEEEEE" style="stroke: #000000; stroke-width: 1.0;"/><rect fill="none" height="206.9609" style="stroke: #000000; stroke-width: 2.0;" width="593" x="13" y="283.3438"/><text fill="#000000" font-family="sans-serif" font-size="13" font-weight="bold" lengthAdjust="spacingAndGlyphs" textLength="19" x="28" y="296.4106">alt</text><a href="[&quot;Fault" target="_top" title="[&quot;Fault" xlink:actuate="onRequest" xlink:href="[&quot;Fault" xlink:show="new" xlink:title="[&quot;Fault" xlink:type="simple"><text fill="#0000FF" font-family="sans-serif" font-size="11" font-weight="bold" lengthAdjust="spacingAndGlyphs" text-decoration="underline" textLength="112" x="92" y="295.5542">ID not in catalog"</text></a><text fill="#000000" font-family="sans-serif" font-size="11" font-weight="bold" lengthAdjust="spacingAndGlyphs" textLength="5" x="204" y="295.5542">]</text><polygon fill="#A80036" points="76.5,317.6094,66.5,321.6094,76.5,325.6094,72.5,321.6094" style="stroke: #A80036; stroke-width: 1.0;"/><line style="stroke: #A80036; stroke-width: 1.0; stroke-dasharray: 2.0,2.0;" x1="70.5" x2="539" y1="321.6094" y2="321.6094"/><text fill="#000000" font-family="sans-serif" font-size="13" lengthAdjust="spacingAndGlyphs" textLength="226" x="82.5" y="316.5435">Err(ReporterError::FaultIdNotFound)</text><line style="stroke: #000000; stroke-width: 1.0; stroke-dasharray: 2.0,2.0;" x1="13" x2="606" y1="330.6094" y2="330.6094"/><polygon fill="#A80036" points="298.5,348.7422,308.5,352.7422,298.5,356.7422,302.5,352.7422" style="stroke: #A80036; stroke-width: 1.0;"/><line style="stroke: #A80036; stroke-width: 1.0;" x1="65.5" x2="304.5" y1="352.7422" y2="352.7422"/><text fill="#000000" font-family="sans-serif" font-size="13" lengthAdjust="spacingAndGlyphs" textLength="201" x="72.5" y="347.6763">Reporter::new(&amp;fault_id, config)</text><rect fill="#FEFECE" filter="url(#f1yuzsevt4b88)" height="30.2969" style="stroke: #A80036; stroke-width: 1.5;" width="75" x="310.5" y="331.6094"/><text fill="#000000" font-family="sans-serif" font-size="14" lengthAdjust="spacingAndGlyphs" textLength="61" x="317.5" y="351.6045">Reporter</text><line style="stroke: #A80036; stroke-width: 1.0;" x1="350" x2="392" y1="398.0391" y2="398.0391"/><line style="stroke: #A80036; stroke-width: 1.0;" x1="392" x2="392" y1="398.0391" y2="411.0391"/><line style="stroke: #A80036; stroke-width: 1.0;" x1="351" x2="392" y1="411.0391" y2="411.0391"/><polygon fill="#A80036" points="361,407.0391,351,411.0391,361,415.0391,357,411.0391" style="stroke: #A80036; stroke-width: 1.0;"/><text fill="#000000" font-family="sans-serif" font-size="13" lengthAdjust="spacingAndGlyphs" textLength="176" x="357" y="392.9731">lookup descriptor in catalog</text><polygon fill="#A80036" points="76.5,436.1719,66.5,440.1719,76.5,444.1719,72.5,440.1719" style="stroke: #A80036; stroke-width: 1.0;"/><line style="stroke: #A80036; stroke-width: 1.0; stroke-dasharray: 2.0,2.0;" x1="70.5" x2="349" y1="440.1719" y2="440.1719"/><text fill="#000000" font-family="sans-serif" font-size="13" lengthAdjust="spacingAndGlyphs" textLength="82" x="82.5" y="435.106">Ok(Reporter)</text><line style="stroke: #A80036; stroke-width: 1.0;" x1="65.5" x2="107.5" y1="469.3047" y2="469.3047"/><line style="stroke: #A80036; stroke-width: 1.0;" x1="107.5" x2="107.5" y1="469.3047" y2="482.3047"/><line style="stroke: #A80036; stroke-width: 1.0;" x1="66.5" x2="107.5" y1="482.3047" y2="482.3047"/><polygon fill="#A80036" points="76.5,478.3047,66.5,482.3047,76.5,486.3047,72.5,482.3047" style="stroke: #A80036; stroke-width: 1.0;"/><text fill="#000000" font-family="sans-serif" font-size="13" lengthAdjust="spacingAndGlyphs" textLength="119" x="72.5" y="464.2388">store/use Reporter</text><rect fill="#EEEEEE" filter="url(#f1yuzsevt4b88)" height="3" style="stroke: #EEEEEE; stroke-width: 1.0;" width="1257" x="3" y="517.8711"/><line style="stroke: #000000; stroke-width: 1.0;" x1="3" x2="1260" y1="517.8711" y2="517.8711"/><line style="stroke: #000000; stroke-width: 1.0;" x1="3" x2="1260" y1="520.8711" y2="520.8711"/><rect fill="#EEEEEE" filter="url(#f1yuzsevt4b88)" height="23.1328" style="stroke: #000000; stroke-width: 2.0;" width="169" x="547" y="507.3047"/><text fill="#000000" font-family="sans-serif" font-size="13" font-weight="bold" lengthAdjust="spacingAndGlyphs" textLength="150" x="553" y="523.3716">App Reporting Fault</text><polygon fill="#A80036" points="338,557.5703,348,561.5703,338,565.5703,342,561.5703" style="stroke: #A80036; stroke-width: 1.0;"/><line style="stroke: #A80036; stroke-width: 1.0;" x1="65.5" x2="344" y1="561.5703" y2="561.5703"/><text fill="#000000" font-family="sans-serif" font-size="13" lengthAdjust="spacingAndGlyphs" textLength="133" x="72.5" y="556.5044">publish(path, record)</text><line style="stroke: #A80036; stroke-width: 1.0;" x1="350" x2="392" y1="590.7031" y2="590.7031"/><line style="stroke: #A80036; stroke-width: 1.0;" x1="392" x2="392" y1="590.7031" y2="603.7031"/><line style="stroke: #A80036; stroke-width: 1.0;" x1="351" x2="392" y1="603.7031" y2="603.7031"/><polygon fill="#A80036" points="361,599.7031,351,603.7031,361,607.7031,357,603.7031" style="stroke: #A80036; stroke-width: 1.0;"/><text fill="#000000" font-family="sans-serif" font-size="13" lengthAdjust="spacingAndGlyphs" textLength="128" x="357" y="585.6372">check_debouncing()</text><path d="M13,618.7031 L77,618.7031 L77,625.7031 L67,635.7031 L13,635.7031 L13,618.7031 " fill="#EEEEEE" style="stroke: #000000; stroke-width: 1.0;"/><rect fill="none" height="503.3906" style="stroke: #000000; stroke-width: 2.0;" width="1237" x="13" y="618.7031"/><text fill="#000000" font-family="sans-serif" font-size="13" font-weight="bold" lengthAdjust="spacingAndGlyphs" textLength="19" x="28" y="631.77">alt</text><a href="Debouncing not passed or enabling conditions not fulfilled" target="_top" title="Debouncing not passed or enabling conditions not fulfilled" xlink:actuate="onRequest" xlink:href="Debouncing not passed or enabling conditions not fulfilled" xlink:show="new" xlink:title="Debouncing not passed or enabling conditions not fulfilled" xlink:type="simple"><text fill="#0000FF" font-family="sans-serif" font-size="11" font-weight="bold" lengthAdjust="spacingAndGlyphs" text-decoration="underline" textLength="378" x="92" y="630.9136">Debouncing not passed or enabling conditions not fulfilled</text></a><polygon fill="#A80036" points="76.5,637.8359,66.5,641.8359,76.5,645.8359,72.5,641.8359" style="stroke: #A80036; stroke-width: 1.0;"/><line style="stroke: #A80036; stroke-width: 1.0; stroke-dasharray: 2.0,2.0;" x1="70.5" x2="349" y1="641.8359" y2="641.8359"/><line style="stroke: #000000; stroke-width: 1.0; stroke-dasharray: 2.0,2.0;" x1="13" x2="1250" y1="650.8359" y2="650.8359"/><polygon fill="#A80036" points="528,668.9688,538,672.9688,528,676.9688,532,672.9688" style="stroke: #A80036; stroke-width: 1.0;"/><line style="stroke: #A80036; stroke-width: 1.0;" x1="350" x2="534" y1="672.9688" y2="672.9688"/><text fill="#000000" font-family="sans-serif" font-size="13" lengthAdjust="spacingAndGlyphs" textLength="162" x="357" y="667.9028">sink.publish(path, record)</text><line style="stroke: #A80036; stroke-width: 1.0;" x1="540" x2="582" y1="702.1016" y2="702.1016"/><line style="stroke: #A80036; stroke-width: 1.0;" x1="582" x2="582" y1="702.1016" y2="715.1016"/><line style="stroke: #A80036; stroke-width: 1.0;" x1="541" x2="582" y1="715.1016" y2="715.1016"/><polygon fill="#A80036" points="551,711.1016,541,715.1016,551,719.1016,547,715.1016" style="stroke: #A80036; stroke-width: 1.0;"/><text fill="#000000" font-family="sans-serif" font-size="13" lengthAdjust="spacingAndGlyphs" textLength="275" x="547" y="697.0356">create DiagnosticEvent::Fault(path, record)</text><line style="stroke: #A80036; stroke-width: 1.0;" x1="827" x2="817" y1="759.3672" y2="755.3672"/><line style="stroke: #A80036; stroke-width: 1.0;" x1="827" x2="817" y1="759.3672" y2="763.3672"/><line style="stroke: #A80036; stroke-width: 1.0;" x1="540" x2="828" y1="759.3672" y2="759.3672"/><text fill="#000000" font-family="sans-serif" font-size="13" lengthAdjust="spacingAndGlyphs" textLength="144" x="547" y="739.1685">mpsc::try_send(event)</text><text fill="#000000" font-family="sans-serif" font-size="13" lengthAdjust="spacingAndGlyphs" textLength="224" x="547" y="754.3013">(bounded channel, capacity=1024)</text><path d="M545,772.3672 L545,812.3672 L787,812.3672 L787,782.3672 L777,772.3672 L545,772.3672 " fill="#FBFB77" filter="url(#f1yuzsevt4b88)" style="stroke: #A80036; stroke-width: 1.0;"/><path d="M777,772.3672 L777,782.3672 L787,782.3672 L777,772.3672 " fill="#FBFB77" style="stroke: #A80036; stroke-width: 1.0;"/><text fill="#000000" font-family="sans-serif" font-size="13" lengthAdjust="spacingAndGlyphs" textLength="147" x="551" y="789.4341">Non-blocking enqueue.</text><text fill="#000000" font-family="sans-serif" font-size="13" lengthAdjust="spacingAndGlyphs" textLength="221" x="551" y="804.5669">Returns QueueFull if channel is full.</text><polygon fill="#A80036" points="76.5,823.6328,66.5,827.6328,76.5,831.6328,72.5,827.6328" style="stroke: #A80036; stroke-width: 1.0;"/><line style="stroke: #A80036; stroke-width: 1.0; stroke-dasharray: 2.0,2.0;" x1="70.5" x2="349" y1="827.6328" y2="827.6328"/><rect fill="#EEEEEE" filter="url(#f1yuzsevt4b88)" height="3" style="stroke: #EEEEEE; stroke-width: 1.0;" width="1257" x="3" y="856.1992"/><line style="stroke: #000000; stroke-width: 1.0;" x1="3" x2="1260" y1="856.1992" y2="856.1992"/><line style="stroke: #000000; stroke-width: 1.0;" x1="3" x2="1260" y1="859.1992" y2="859.1992"/><rect fill="#EEEEEE" filter="url(#f1yuzsevt4b88)" height="23.1328" style="stroke: #000000; stroke-width: 2.0;" width="367" x="448" y="845.6328"/><text fill="#000000" font-family="sans-serif" font-size="13" font-weight="bold" lengthAdjust="spacingAndGlyphs" textLength="348" x="454" y="861.6997">Async IPC (iceoryx2 zero-copy shared memory)</text><line style="stroke: #A80036; stroke-width: 1.0;" x1="829" x2="871" y1="899.8984" y2="899.8984"/><line style="stroke: #A80036; stroke-width: 1.0;" x1="871" x2="871" y1="899.8984" y2="912.8984"/><line style="stroke: #A80036; stroke-width: 1.0;" x1="830" x2="871" y1="912.8984" y2="912.8984"/><polygon fill="#A80036" points="840,908.8984,830,912.8984,840,916.8984,836,912.8984" style="stroke: #A80036; stroke-width: 1.0;"/><text fill="#000000" font-family="sans-serif" font-size="13" lengthAdjust="spacingAndGlyphs" textLength="130" x="836" y="894.8325">recv_timeout(50ms)</text><line style="stroke: #A80036; stroke-width: 1.0;" x1="1052" x2="1042" y1="942.0313" y2="938.0313"/><line style="stroke: #A80036; stroke-width: 1.0;" x1="1052" x2="1042" y1="942.0313" y2="946.0313"/><line style="stroke: #A80036; stroke-width: 1.0;" x1="829" x2="1053" y1="942.0313" y2="942.0313"/><text fill="#000000" font-family="sans-serif" font-size="13" lengthAdjust="spacingAndGlyphs" textLength="201" x="836" y="936.9653">iceoryx2 publish on "dfm/event"</text><path d="M834,955.0313 L834,1055.0313 L1137,1055.0313 L1137,965.0313 L1127,955.0313 L834,955.0313 " fill="#FBFB77" filter="url(#f1yuzsevt4b88)" style="stroke: #A80036; stroke-width: 1.0;"/><path d="M1127,955.0313 L1127,965.0313 L1137,965.0313 L1127,955.0313 " fill="#FBFB77" style="stroke: #A80036; stroke-width: 1.0;"/><text fill="#000000" font-family="sans-serif" font-size="13" lengthAdjust="spacingAndGlyphs" textLength="252" x="840" y="972.0981">Fire-and-forget: no response from DFM.</text><text fill="#000000" font-family="sans-serif" font-size="13" lengthAdjust="spacingAndGlyphs" textLength="231" x="840" y="987.231">On transient failure (TransportDown,</text><text fill="#000000" font-family="sans-serif" font-size="13" lengthAdjust="spacingAndGlyphs" textLength="260" x="840" y="1002.3638">Timeout, QueueFull): exponential backoff</text><text fill="#000000" font-family="sans-serif" font-size="13" lengthAdjust="spacingAndGlyphs" textLength="273" x="840" y="1017.4966">retry (100ms base, 5s cap, max 10 retries,</text><text fill="#000000" font-family="sans-serif" font-size="13" lengthAdjust="spacingAndGlyphs" textLength="220" x="840" y="1032.6294">LRU eviction cache of 512 events).</text><text fill="#000000" font-family="sans-serif" font-size="13" lengthAdjust="spacingAndGlyphs" textLength="282" x="840" y="1047.7622">Permanent errors are dropped immediately.</text><line style="stroke: #A80036; stroke-width: 1.0;" x1="1054" x2="1096" y1="1101.0938" y2="1101.0938"/><line style="stroke: #A80036; stroke-width: 1.0;" x1="1096" x2="1096" y1="1101.0938" y2="1114.0938"/><line style="stroke: #A80036; stroke-width: 1.0;" x1="1055" x2="1096" y1="1114.0938" y2="1114.0938"/><polygon fill="#A80036" points="1065,1110.0938,1055,1114.0938,1065,1118.0938,1061,1114.0938" style="stroke: #A80036; stroke-width: 1.0;"/><text fill="#000000" font-family="sans-serif" font-size="13" lengthAdjust="spacingAndGlyphs" textLength="138" x="1061" y="1080.895">FaultRecordProcessor</text><text fill="#000000" font-family="sans-serif" font-size="13" lengthAdjust="spacingAndGlyphs" textLength="177" x="1061" y="1096.0278">.process_record(path, fault)</text><!--MD5=[34fe7ee65ee88c2428fde7690f9e003d]
@startuml
title Reporting fault by the app
skinparam ParticipantPadding 20

box "App Process"
participant App
participant Reporter
participant FaultApi
participant "IpcWorker\n(fault_client_worker)" as IpcWorker
end box
box "DFM Process"
participant DiagFaultMgr
end box

ref over FaultApi, DiagFaultMgr: [[fault_catalog.svg Fault Catalog Init]]

== Start up ==

App -> FaultApi : FaultApi::try_new(catalog, sink)
note right of FaultApi
    This diagram does not consider the case
    when the fault doesn't exist in catalog
end note

alt [["Fault ID not in catalog"]]

    App <- - FaultApi : Err(ReporterError::FaultIdNotFound)
else

    create Reporter
    App -> Reporter : Reporter::new(&fault_id, config)
    Reporter -> Reporter : lookup descriptor in catalog
    App <- - Reporter : Ok(Reporter)
    App -> App : store/use Reporter
end
== App Reporting Fault ==

App -> Reporter : publish(path, record)
Reporter -> Reporter : check_debouncing()

alt ["Debouncing not passed or enabling conditions not fulfilled"]
    App <- - Reporter
else
    Reporter -> FaultApi : sink.publish(path, record)
    FaultApi -> FaultApi : create DiagnosticEvent::Fault(path, record)
    FaultApi ->> IpcWorker : mpsc::try_send(event)\n(bounded channel, capacity=1024)
    note right of FaultApi
        Non-blocking enqueue.
        Returns QueueFull if channel is full.
    end note
    App <- - Reporter

    == Async IPC (iceoryx2 zero-copy shared memory) ==

    IpcWorker -> IpcWorker : recv_timeout(50ms)
    IpcWorker ->> DiagFaultMgr : iceoryx2 publish on "dfm/event"
    note right of IpcWorker
        Fire-and-forget: no response from DFM.
        On transient failure (TransportDown,
        Timeout, QueueFull): exponential backoff
        retry (100ms base, 5s cap, max 10 retries,
        LRU eviction cache of 512 events).
        Permanent errors are dropped immediately.
    end note
    DiagFaultMgr -> DiagFaultMgr : FaultRecordProcessor\n.process_record(path, fault)
end

@enduml

PlantUML version 1.2020.02(Sun Mar 01 11:22:07 CET 2020)
(GPL source distribution)
Java Runtime: OpenJDK Runtime Environment
JVM: OpenJDK 64-Bit Server VM
Java Version: 21.0.10+7-Debian-1deb13u1
Operating System: Linux
Default Encoding: UTF-8
Language: en
Country: US
--></g></svg>