<?xml version="1.0" encoding="UTF-8" standalone="no"?><svg xmlns="http://www.w3.org/2000/svg" xmlns:xlink="http://www.w3.org/1999/xlink" contentScriptType="application/ecmascript" contentStyleType="text/css" height="1892px" preserveAspectRatio="none" style="width:1156px;height:1892px;" version="1.1" viewBox="0 0 1156 1892" width="1156px" zoomAndPan="magnify"><defs><filter height="300%" id="f44f4zkr1to7j" width="300%" x="-1" y="-1"><feGaussianBlur result="blurOut" stdDeviation="2.0"/><feColorMatrix in="blurOut" result="blurOut2" type="matrix" values="0 0 0 0 0 0 0 0 0 0 0 0 0 0 0 0 0 0 .4 0"/><feOffset dx="4.0" dy="4.0" in="blurOut2" result="blurOut3"/><feBlend in="SourceGraphic" in2="blurOut3" mode="normal"/></filter></defs><g><text fill="#000000" font-family="sans-serif" font-size="18" lengthAdjust="spacingAndGlyphs" textLength="269" x="439" y="26.708">DFM Query/Clear IPC Protocol</text><rect fill="#DDDDDD" height="1842.9609" style="stroke: #A80036; stroke-width: 1.0;" width="401.5" x="19" y="38.9531"/><text fill="#000000" font-family="sans-serif" font-size="13" font-weight="bold" lengthAdjust="spacingAndGlyphs" textLength="123" x="158.25" y="51.02">External Process</text><text fill="#000000" font-family="sans-serif" font-size="13" font-weight="bold" lengthAdjust="spacingAndGlyphs" textLength="190" x="124.75" y="66.1528">(e.g. OpenSOVD adapter)</text><rect fill="#DDDDDD" height="1842.9609" style="stroke: #A80036; stroke-width: 1.0;" width="620" x="523" y="38.9531"/><text fill="#000000" font-family="sans-serif" font-size="13" font-weight="bold" lengthAdjust="spacingAndGlyphs" textLength="96" x="785" y="51.02">DFM Process</text><rect fill="#FFFFFF" filter="url(#f44f4zkr1to7j)" height="237" style="stroke: #000000; stroke-width: 2.0;" width="947" x="13" y="992.7969"/><rect fill="#FFFFFF" height="117.3359" style="stroke: none; stroke-width: 1.0;" width="947" x="13" y="1112.4609"/><line style="stroke: #A80036; stroke-width: 1.0; stroke-dasharray: 5.0,5.0;" x1="88" x2="88" y1="124.8125" y2="1827.3203"/><line style="stroke: #A80036; stroke-width: 1.0; stroke-dasharray: 5.0,5.0;" x1="324.5" x2="324.5" y1="124.8125" y2="1827.3203"/><line style="stroke: #A80036; stroke-width: 1.0; stroke-dasharray: 5.0,5.0;" x1="624" x2="624" y1="124.8125" y2="1827.3203"/><line style="stroke: #A80036; stroke-width: 1.0; stroke-dasharray: 5.0,5.0;" x1="857" x2="857" y1="124.8125" y2="1827.3203"/><line style="stroke: #A80036; stroke-width: 1.0; stroke-dasharray: 5.0,5.0;" x1="1049" x2="1049" y1="124.8125" y2="1827.3203"/><rect fill="#FEFECE" filter="url(#f44f4zkr1to7j)" height="46.5938" style="stroke: #A80036; stroke-width: 1.5;" width="87" x="43" y="73.2188"/><text fill="#000000" font-family="sans-serif" font-size="14" lengthAdjust="spacingAndGlyphs" textLength="73" x="50" y="93.2139">Diagnostic</text><text fill="#000000" font-family="sans-serif" font-size="14" lengthAdjust="spacingAndGlyphs" textLength="39" x="67" y="109.5107">Client</text><rect fill="#FEFECE" filter="url(#f44f4zkr1to7j)" height="46.5938" style="stroke: #A80036; stroke-width: 1.5;" width="87" x="43" y="1826.3203"/><text fill="#000000" font-family="sans-serif" font-size="14" lengthAdjust="spacingAndGlyphs" textLength="73" x="50" y="1846.3154">Diagnostic</text><text fill="#000000" font-family="sans-serif" font-size="14" lengthAdjust="spacingAndGlyphs" textLength="39" x="67" y="1862.6123">Client</text><rect fill="#FEFECE" filter="url(#f44f4zkr1to7j)" height="30.2969" style="stroke: #A80036; stroke-width: 1.5;" width="140" x="252.5" y="89.5156"/><text fill="#000000" font-family="sans-serif" font-size="14" lengthAdjust="spacingAndGlyphs" textLength="126" x="259.5" y="109.5107">Iceoryx2DfmQuery</text><rect fill="#FEFECE" filter="url(#f44f4zkr1to7j)" height="30.2969" style="stroke: #A80036; stroke-width: 1.5;" width="140" x="252.5" y="1826.3203"/><text fill="#000000" font-family="sans-serif" font-size="14" lengthAdjust="spacingAndGlyphs" textLength="126" x="259.5" y="1846.3154">Iceoryx2DfmQuery</text><rect fill="#FEFECE" filter="url(#f44f4zkr1to7j)" height="46.5938" style="stroke: #A80036; stroke-width: 1.5;" width="151" x="547" y="73.2188"/><text fill="#000000" font-family="sans-serif" font-size="14" lengthAdjust="spacingAndGlyphs" textLength="113" x="566" y="93.2139">DfmQueryServer</text><text fill="#000000" font-family="sans-serif" font-size="14" lengthAdjust="spacingAndGlyphs" textLength="137" x="554" y="109.5107">(polled in DFM loop)</text><rect fill="#FEFECE" filter="url(#f44f4zkr1to7j)" height="46.5938" style="stroke: #A80036; stroke-width: 1.5;" width="151" x="547" y="1826.3203"/><text fill="#000000" font-family="sans-serif" font-size="14" lengthAdjust="spacingAndGlyphs" textLength="113" x="566" y="1846.3154">DfmQueryServer</text><text fill="#000000" font-family="sans-serif" font-size="14" lengthAdjust="spacingAndGlyphs" textLength="137" x="554" y="1862.6123">(polled in DFM loop)</text><rect fill="#FEFECE" filter="url(#f44f4zkr1to7j)" height="30.2969" style="stroke: #A80036; stroke-width: 1.5;" width="141" x="785" y="89.5156"/><text fill="#000000" font-family="sans-serif" font-size="14" lengthAdjust="spacingAndGlyphs" textLength="127" x="792" y="109.5107">SovdFaultManager</text><rect fill="#FEFECE" filter="url(#f44f4zkr1to7j)" height="30.2969" style="stroke: #A80036; stroke-width: 1.5;" width="141" x="785" y="1826.3203"/><text fill="#000000" font-family="sans-serif" font-size="14" lengthAdjust="spacingAndGlyphs" textLength="127" x="792" y="1846.3154">SovdFaultManager</text><rect fill="#FEFECE" filter="url(#f44f4zkr1to7j)" height="30.2969" style="stroke: #A80036; stroke-width: 1.5;" width="135" x="980" y="89.5156"/><text fill="#000000" font-family="sans-serif" font-size="14" lengthAdjust="spacingAndGlyphs" textLength="121" x="987" y="109.5107">SovdFaultStorage</text><rect fill="#FEFECE" filter="url(#f44f4zkr1to7j)" height="30.2969" style="stroke: #A80036; stroke-width: 1.5;" width="135" x="980" y="1826.3203"/><text fill="#000000" font-family="sans-serif" font-size="14" lengthAdjust="spacingAndGlyphs" textLength="121" x="987" y="1846.3154">SovdFaultStorage</text><rect fill="#EEEEEE" filter="url(#f44f4zkr1to7j)" height="3" style="stroke: #EEEEEE; stroke-width: 1.0;" width="1141" x="3" y="155.3789"/><line style="stroke: #000000; stroke-width: 1.0;" x1="3" x2="1144" y1="155.3789" y2="155.3789"/><line style="stroke: #000000; stroke-width: 1.0;" x1="3" x2="1144" y1="158.3789" y2="158.3789"/><rect fill="#EEEEEE" filter="url(#f44f4zkr1to7j)" height="23.1328" style="stroke: #000000; stroke-width: 2.0;" width="62" x="542.5" y="144.8125"/><text fill="#000000" font-family="sans-serif" font-size="13" font-weight="bold" lengthAdjust="spacingAndGlyphs" textLength="43" x="548.5" y="160.8794">Setup</text><path d="M481,182.9453 L481,252.9453 L763,252.9453 L763,192.9453 L753,182.9453 L481,182.9453 " fill="#FBFB77" filter="url(#f44f4zkr1to7j)" style="stroke: #A80036; stroke-width: 1.0;"/><path d="M753,182.9453 L753,192.9453 L763,192.9453 L753,182.9453 " fill="#FBFB77" style="stroke: #A80036; stroke-width: 1.0;"/><text fill="#000000" font-family="sans-serif" font-size="13" lengthAdjust="spacingAndGlyphs" textLength="201" x="487" y="200.0122">DfmQueryServer created inside</text><text fill="#000000" font-family="sans-serif" font-size="13" lengthAdjust="spacingAndGlyphs" textLength="193" x="487" y="215.145">fault_lib_receiver_thread when</text><text fill="#000000" font-family="sans-serif" font-size="13" lengthAdjust="spacingAndGlyphs" textLength="182" x="487" y="230.2778">enable_query_server = true.</text><text fill="#000000" font-family="sans-serif" font-size="13" lengthAdjust="spacingAndGlyphs" textLength="261" x="487" y="245.4106">Service: "dfm/query" (request-response).</text><polygon fill="#A80036" points="312.5,294.7422,322.5,298.7422,312.5,302.7422,316.5,298.7422" style="stroke: #A80036; stroke-width: 1.0;"/><line style="stroke: #A80036; stroke-width: 1.0;" x1="88.5" x2="318.5" y1="298.7422" y2="298.7422"/><text fill="#000000" font-family="sans-serif" font-size="13" lengthAdjust="spacingAndGlyphs" textLength="35" x="95.5" y="278.5435">new()</text><text fill="#000000" font-family="sans-serif" font-size="13" lengthAdjust="spacingAndGlyphs" textLength="203" x="95.5" y="293.6763">connects to "dfm/query" service</text><rect fill="#EEEEEE" filter="url(#f44f4zkr1to7j)" height="3" style="stroke: #EEEEEE; stroke-width: 1.0;" width="1141" x="3" y="327.3086"/><line style="stroke: #000000; stroke-width: 1.0;" x1="3" x2="1144" y1="327.3086" y2="327.3086"/><line style="stroke: #000000; stroke-width: 1.0;" x1="3" x2="1144" y1="330.3086" y2="330.3086"/><rect fill="#EEEEEE" filter="url(#f44f4zkr1to7j)" height="23.1328" style="stroke: #000000; stroke-width: 2.0;" width="161" x="493" y="316.7422"/><text fill="#000000" font-family="sans-serif" font-size="13" font-weight="bold" lengthAdjust="spacingAndGlyphs" textLength="142" x="499" y="332.8091">Query: GetAllFaults</text><polygon fill="#A80036" points="312.5,367.0078,322.5,371.0078,312.5,375.0078,316.5,371.0078" style="stroke: #A80036; stroke-width: 1.0;"/><line style="stroke: #A80036; stroke-width: 1.0;" x1="88.5" x2="318.5" y1="371.0078" y2="371.0078"/><text fill="#000000" font-family="sans-serif" font-size="13" lengthAdjust="spacingAndGlyphs" textLength="166" x="95.5" y="365.9419">get_all_faults(entity_path)</text><line style="stroke: #A80036; stroke-width: 1.0;" x1="324.5" x2="366.5" y1="415.2734" y2="415.2734"/><line style="stroke: #A80036; stroke-width: 1.0;" x1="366.5" x2="366.5" y1="415.2734" y2="428.2734"/><line style="stroke: #A80036; stroke-width: 1.0;" x1="325.5" x2="366.5" y1="428.2734" y2="428.2734"/><polygon fill="#A80036" points="335.5,424.2734,325.5,428.2734,335.5,432.2734,331.5,428.2734" style="stroke: #A80036; stroke-width: 1.0;"/><text fill="#000000" font-family="sans-serif" font-size="13" lengthAdjust="spacingAndGlyphs" textLength="169" x="331.5" y="395.0747">path -&gt; LongString (128B)</text><text fill="#000000" font-family="sans-serif" font-size="13" lengthAdjust="spacingAndGlyphs" textLength="120" x="331.5" y="410.2075">(rejects if too long)</text><line style="stroke: #A80036; stroke-width: 1.0;" x1="622.5" x2="612.5" y1="472.5391" y2="468.5391"/><line style="stroke: #A80036; stroke-width: 1.0;" x1="622.5" x2="612.5" y1="472.5391" y2="476.5391"/><line style="stroke: #A80036; stroke-width: 1.0;" x1="324.5" x2="623.5" y1="472.5391" y2="472.5391"/><text fill="#000000" font-family="sans-serif" font-size="13" lengthAdjust="spacingAndGlyphs" textLength="174" x="331.5" y="452.3403">IPC send (default: iceoryx2)</text><text fill="#000000" font-family="sans-serif" font-size="13" lengthAdjust="spacingAndGlyphs" textLength="240" x="331.5" y="467.4731">DfmQueryRequest::GetAllFaults(path)</text><line style="stroke: #A80036; stroke-width: 1.0;" x1="324.5" x2="366.5" y1="516.8047" y2="516.8047"/><line style="stroke: #A80036; stroke-width: 1.0;" x1="366.5" x2="366.5" y1="516.8047" y2="529.8047"/><line style="stroke: #A80036; stroke-width: 1.0;" x1="325.5" x2="366.5" y1="529.8047" y2="529.8047"/><polygon fill="#A80036" points="335.5,525.8047,325.5,529.8047,335.5,533.8047,331.5,529.8047" style="stroke: #A80036; stroke-width: 1.0;"/><text fill="#000000" font-family="sans-serif" font-size="13" lengthAdjust="spacingAndGlyphs" textLength="85" x="331.5" y="496.606">poll response</text><text fill="#000000" font-family="sans-serif" font-size="13" lengthAdjust="spacingAndGlyphs" textLength="174" x="331.5" y="511.7388">(1s timeout, 10ms interval)</text><line style="stroke: #A80036; stroke-width: 1.0;" x1="624.5" x2="666.5" y1="558.9375" y2="558.9375"/><line style="stroke: #A80036; stroke-width: 1.0;" x1="666.5" x2="666.5" y1="558.9375" y2="571.9375"/><line style="stroke: #A80036; stroke-width: 1.0;" x1="625.5" x2="666.5" y1="571.9375" y2="571.9375"/><polygon fill="#A80036" points="635.5,567.9375,625.5,571.9375,635.5,575.9375,631.5,571.9375" style="stroke: #A80036; stroke-width: 1.0;"/><text fill="#000000" font-family="sans-serif" font-size="13" lengthAdjust="spacingAndGlyphs" textLength="142" x="631.5" y="553.8716">poll() receives request</text><polygon fill="#A80036" points="845.5,597.0703,855.5,601.0703,845.5,605.0703,849.5,601.0703" style="stroke: #A80036; stroke-width: 1.0;"/><line style="stroke: #A80036; stroke-width: 1.0;" x1="624.5" x2="851.5" y1="601.0703" y2="601.0703"/><text fill="#000000" font-family="sans-serif" font-size="13" lengthAdjust="spacingAndGlyphs" textLength="123" x="631.5" y="596.0044">get_all_faults(path)</text><polygon fill="#A80036" points="1037.5,626.2031,1047.5,630.2031,1037.5,634.2031,1041.5,630.2031" style="stroke: #A80036; stroke-width: 1.0;"/><line style="stroke: #A80036; stroke-width: 1.0;" x1="857.5" x2="1043.5" y1="630.2031" y2="630.2031"/><text fill="#000000" font-family="sans-serif" font-size="13" lengthAdjust="spacingAndGlyphs" textLength="105" x="864.5" y="625.1372">read fault states</text><polygon fill="#A80036" points="635.5,655.3359,625.5,659.3359,635.5,663.3359,631.5,659.3359" style="stroke: #A80036; stroke-width: 1.0;"/><line style="stroke: #A80036; stroke-width: 1.0; stroke-dasharray: 2.0,2.0;" x1="629.5" x2="856.5" y1="659.3359" y2="659.3359"/><text fill="#000000" font-family="sans-serif" font-size="13" lengthAdjust="spacingAndGlyphs" textLength="109" x="641.5" y="654.27">Vec&lt;SovdFault&gt;</text><line style="stroke: #A80036; stroke-width: 1.0;" x1="624.5" x2="666.5" y1="718.7344" y2="718.7344"/><line style="stroke: #A80036; stroke-width: 1.0;" x1="666.5" x2="666.5" y1="718.7344" y2="731.7344"/><line style="stroke: #A80036; stroke-width: 1.0;" x1="625.5" x2="666.5" y1="731.7344" y2="731.7344"/><polygon fill="#A80036" points="635.5,727.7344,625.5,731.7344,635.5,735.7344,631.5,731.7344" style="stroke: #A80036; stroke-width: 1.0;"/><text fill="#000000" font-family="sans-serif" font-size="13" lengthAdjust="spacingAndGlyphs" textLength="150" x="631.5" y="683.4028">convert to IpcSovdFault</text><text fill="#000000" font-family="sans-serif" font-size="13" lengthAdjust="spacingAndGlyphs" textLength="176" x="631.5" y="698.5356">(lossy: String-&gt;ShortString,</text><text fill="#000000" font-family="sans-serif" font-size="13" lengthAdjust="spacingAndGlyphs" textLength="119" x="631.5" y="713.6685">HashMap omitted)</text><line style="stroke: #A80036; stroke-width: 1.0;" x1="324.5" x2="334.5" y1="776" y2="772"/><line style="stroke: #A80036; stroke-width: 1.0;" x1="324.5" x2="334.5" y1="776" y2="780"/><line style="stroke: #A80036; stroke-width: 1.0;" x1="324.5" x2="623.5" y1="776" y2="776"/><text fill="#000000" font-family="sans-serif" font-size="13" lengthAdjust="spacingAndGlyphs" textLength="188" x="341.5" y="755.8013">DfmQueryResponse::FaultList</text><text fill="#000000" font-family="sans-serif" font-size="13" lengthAdjust="spacingAndGlyphs" textLength="185" x="341.5" y="770.9341">(max 64 faults per response)</text><line style="stroke: #A80036; stroke-width: 1.0;" x1="324.5" x2="366.5" y1="805.1328" y2="805.1328"/><line style="stroke: #A80036; stroke-width: 1.0;" x1="366.5" x2="366.5" y1="805.1328" y2="818.1328"/><line style="stroke: #A80036; stroke-width: 1.0;" x1="325.5" x2="366.5" y1="818.1328" y2="818.1328"/><polygon fill="#A80036" points="335.5,814.1328,325.5,818.1328,335.5,822.1328,331.5,818.1328" style="stroke: #A80036; stroke-width: 1.0;"/><text fill="#000000" font-family="sans-serif" font-size="13" lengthAdjust="spacingAndGlyphs" textLength="220" x="331.5" y="800.0669">convert IpcSovdFault -&gt; SovdFault</text><polygon fill="#A80036" points="99.5,843.2656,89.5,847.2656,99.5,851.2656,95.5,847.2656" style="stroke: #A80036; stroke-width: 1.0;"/><line style="stroke: #A80036; stroke-width: 1.0; stroke-dasharray: 2.0,2.0;" x1="93.5" x2="323.5" y1="847.2656" y2="847.2656"/><text fill="#000000" font-family="sans-serif" font-size="13" lengthAdjust="spacingAndGlyphs" textLength="136" x="105.5" y="842.1997">Ok(Vec&lt;SovdFault&gt;)</text><rect fill="#EEEEEE" filter="url(#f44f4zkr1to7j)" height="3" style="stroke: #EEEEEE; stroke-width: 1.0;" width="1141" x="3" y="875.832"/><line style="stroke: #000000; stroke-width: 1.0;" x1="3" x2="1144" y1="875.832" y2="875.832"/><line style="stroke: #000000; stroke-width: 1.0;" x1="3" x2="1144" y1="878.832" y2="878.832"/><rect fill="#EEEEEE" filter="url(#f44f4zkr1to7j)" height="23.1328" style="stroke: #000000; stroke-width: 2.0;" width="135" x="506" y="865.2656"/><text fill="#000000" font-family="sans-serif" font-size="13" font-weight="bold" lengthAdjust="spacingAndGlyphs" textLength="116" x="512" y="881.3325">Query: GetFault</text><polygon fill="#A80036" points="312.5,915.5313,322.5,919.5313,312.5,923.5313,316.5,919.5313" style="stroke: #A80036; stroke-width: 1.0;"/><line style="stroke: #A80036; stroke-width: 1.0;" x1="88.5" x2="318.5" y1="919.5313" y2="919.5313"/><text fill="#000000" font-family="sans-serif" font-size="13" lengthAdjust="spacingAndGlyphs" textLength="212" x="95.5" y="914.4653">get_fault(entity_path, fault_code)</text><line style="stroke: #A80036; stroke-width: 1.0;" x1="622.5" x2="612.5" y1="948.6641" y2="944.6641"/><line style="stroke: #A80036; stroke-width: 1.0;" x1="622.5" x2="612.5" y1="948.6641" y2="952.6641"/><line style="stroke: #A80036; stroke-width: 1.0;" x1="324.5" x2="623.5" y1="948.6641" y2="948.6641"/><text fill="#000000" font-family="sans-serif" font-size="13" lengthAdjust="spacingAndGlyphs" textLength="257" x="331.5" y="943.5981">DfmQueryRequest::GetFault(path, code)</text><polygon fill="#A80036" points="845.5,973.7969,855.5,977.7969,845.5,981.7969,849.5,977.7969" style="stroke: #A80036; stroke-width: 1.0;"/><line style="stroke: #A80036; stroke-width: 1.0;" x1="624.5" x2="851.5" y1="977.7969" y2="977.7969"/><text fill="#000000" font-family="sans-serif" font-size="13" lengthAdjust="spacingAndGlyphs" textLength="134" x="631.5" y="972.731">get_fault(path, code)</text><path d="M13,992.7969 L77,992.7969 L77,999.7969 L67,1009.7969 L13,1009.7969 L13,992.7969 " fill="#EEEEEE" style="stroke: #000000; stroke-width: 1.0;"/><rect fill="none" height="237" style="stroke: #000000; stroke-width: 2.0;" width="947" x="13" y="992.7969"/><text fill="#000000" font-family="sans-serif" font-size="13" font-weight="bold" lengthAdjust="spacingAndGlyphs" textLength="19" x="28" y="1005.8638">alt</text><text fill="#000000" font-family="sans-serif" font-size="11" font-weight="bold" lengthAdjust="spacingAndGlyphs" textLength="84" x="92" y="1005.0073">[Fault found]</text><polygon fill="#A80036" points="635.5,1027.0625,625.5,1031.0625,635.5,1035.0625,631.5,1031.0625" style="stroke: #A80036; stroke-width: 1.0;"/><line style="stroke: #A80036; stroke-width: 1.0; stroke-dasharray: 2.0,2.0;" x1="629.5" x2="856.5" y1="1031.0625" y2="1031.0625"/><text fill="#000000" font-family="sans-serif" font-size="13" lengthAdjust="spacingAndGlyphs" textLength="167" x="641.5" y="1025.9966">Ok((SovdFault, env_data))</text><line style="stroke: #A80036; stroke-width: 1.0;" x1="324.5" x2="334.5" y1="1075.3281" y2="1071.3281"/><line style="stroke: #A80036; stroke-width: 1.0;" x1="324.5" x2="334.5" y1="1075.3281" y2="1079.3281"/><line style="stroke: #A80036; stroke-width: 1.0;" x1="324.5" x2="623.5" y1="1075.3281" y2="1075.3281"/><text fill="#000000" font-family="sans-serif" font-size="13" lengthAdjust="spacingAndGlyphs" textLength="205" x="341.5" y="1055.1294">DfmQueryResponse::SingleFault</text><text fill="#000000" font-family="sans-serif" font-size="13" lengthAdjust="spacingAndGlyphs" textLength="171" x="341.5" y="1070.2622">(IpcSovdFault, IpcEnvData)</text><polygon fill="#A80036" points="99.5,1100.4609,89.5,1104.4609,99.5,1108.4609,95.5,1104.4609" style="stroke: #A80036; stroke-width: 1.0;"/><line style="stroke: #A80036; stroke-width: 1.0; stroke-dasharray: 2.0,2.0;" x1="93.5" x2="323.5" y1="1104.4609" y2="1104.4609"/><text fill="#000000" font-family="sans-serif" font-size="13" lengthAdjust="spacingAndGlyphs" textLength="167" x="105.5" y="1099.395">Ok((SovdFault, env_data))</text><line style="stroke: #000000; stroke-width: 1.0; stroke-dasharray: 2.0,2.0;" x1="13" x2="960" y1="1113.4609" y2="1113.4609"/><text fill="#000000" font-family="sans-serif" font-size="11" font-weight="bold" lengthAdjust="spacingAndGlyphs" textLength="109" x="18" y="1123.6714">[Fault not found]</text><polygon fill="#A80036" points="635.5,1144.3984,625.5,1148.3984,635.5,1152.3984,631.5,1148.3984" style="stroke: #A80036; stroke-width: 1.0;"/><line style="stroke: #A80036; stroke-width: 1.0; stroke-dasharray: 2.0,2.0;" x1="629.5" x2="856.5" y1="1148.3984" y2="1148.3984"/><text fill="#000000" font-family="sans-serif" font-size="13" lengthAdjust="spacingAndGlyphs" textLength="90" x="641.5" y="1143.3325">Err(NotFound)</text><line style="stroke: #A80036; stroke-width: 1.0;" x1="324.5" x2="334.5" y1="1192.6641" y2="1188.6641"/><line style="stroke: #A80036; stroke-width: 1.0;" x1="324.5" x2="334.5" y1="1192.6641" y2="1196.6641"/><line style="stroke: #A80036; stroke-width: 1.0;" x1="324.5" x2="623.5" y1="1192.6641" y2="1192.6641"/><text fill="#000000" font-family="sans-serif" font-size="13" lengthAdjust="spacingAndGlyphs" textLength="166" x="341.5" y="1172.4653">DfmQueryResponse::Error</text><text fill="#000000" font-family="sans-serif" font-size="13" lengthAdjust="spacingAndGlyphs" textLength="176" x="341.5" y="1187.5981">(DfmQueryError::NotFound)</text><polygon fill="#A80036" points="99.5,1217.7969,89.5,1221.7969,99.5,1225.7969,95.5,1221.7969" style="stroke: #A80036; stroke-width: 1.0;"/><line style="stroke: #A80036; stroke-width: 1.0; stroke-dasharray: 2.0,2.0;" x1="93.5" x2="323.5" y1="1221.7969" y2="1221.7969"/><text fill="#000000" font-family="sans-serif" font-size="13" lengthAdjust="spacingAndGlyphs" textLength="129" x="105.5" y="1216.731">Err(Error::NotFound)</text><rect fill="#EEEEEE" filter="url(#f44f4zkr1to7j)" height="3" style="stroke: #EEEEEE; stroke-width: 1.0;" width="1141" x="3" y="1257.3633"/><line style="stroke: #000000; stroke-width: 1.0;" x1="3" x2="1144" y1="1257.3633" y2="1257.3633"/><line style="stroke: #000000; stroke-width: 1.0;" x1="3" x2="1144" y1="1260.3633" y2="1260.3633"/><rect fill="#EEEEEE" filter="url(#f44f4zkr1to7j)" height="23.1328" style="stroke: #000000; stroke-width: 2.0;" width="178" x="484.5" y="1246.7969"/><text fill="#000000" font-family="sans-serif" font-size="13" font-weight="bold" lengthAdjust="spacingAndGlyphs" textLength="159" x="490.5" y="1262.8638">Clear: DeleteAllFaults</text><polygon fill="#A80036" points="312.5,1297.0625,322.5,1301.0625,312.5,1305.0625,316.5,1301.0625" style="stroke: #A80036; stroke-width: 1.0;"/><line style="stroke: #A80036; stroke-width: 1.0;" x1="88.5" x2="318.5" y1="1301.0625" y2="1301.0625"/><text fill="#000000" font-family="sans-serif" font-size="13" lengthAdjust="spacingAndGlyphs" textLength="185" x="95.5" y="1295.9966">delete_all_faults(entity_path)</text><line style="stroke: #A80036; stroke-width: 1.0;" x1="622.5" x2="612.5" y1="1330.1953" y2="1326.1953"/><line style="stroke: #A80036; stroke-width: 1.0;" x1="622.5" x2="612.5" y1="1330.1953" y2="1334.1953"/><line style="stroke: #A80036; stroke-width: 1.0;" x1="324.5" x2="623.5" y1="1330.1953" y2="1330.1953"/><text fill="#000000" font-family="sans-serif" font-size="13" lengthAdjust="spacingAndGlyphs" textLength="259" x="331.5" y="1325.1294">DfmQueryRequest::DeleteAllFaults(path)</text><polygon fill="#A80036" points="845.5,1355.3281,855.5,1359.3281,845.5,1363.3281,849.5,1359.3281" style="stroke: #A80036; stroke-width: 1.0;"/><line style="stroke: #A80036; stroke-width: 1.0;" x1="624.5" x2="851.5" y1="1359.3281" y2="1359.3281"/><text fill="#000000" font-family="sans-serif" font-size="13" lengthAdjust="spacingAndGlyphs" textLength="142" x="631.5" y="1354.2622">delete_all_faults(path)</text><polygon fill="#A80036" points="1037.5,1384.4609,1047.5,1388.4609,1037.5,1392.4609,1041.5,1388.4609" style="stroke: #A80036; stroke-width: 1.0;"/><line style="stroke: #A80036; stroke-width: 1.0;" x1="857.5" x2="1043.5" y1="1388.4609" y2="1388.4609"/><text fill="#000000" font-family="sans-serif" font-size="13" lengthAdjust="spacingAndGlyphs" textLength="125" x="864.5" y="1383.395">clear all fault states</text><polygon fill="#A80036" points="635.5,1413.5938,625.5,1417.5938,635.5,1421.5938,631.5,1417.5938" style="stroke: #A80036; stroke-width: 1.0;"/><line style="stroke: #A80036; stroke-width: 1.0; stroke-dasharray: 2.0,2.0;" x1="629.5" x2="856.5" y1="1417.5938" y2="1417.5938"/><text fill="#000000" font-family="sans-serif" font-size="13" lengthAdjust="spacingAndGlyphs" textLength="37" x="641.5" y="1412.5278">Ok(())</text><line style="stroke: #A80036; stroke-width: 1.0;" x1="324.5" x2="334.5" y1="1446.7266" y2="1442.7266"/><line style="stroke: #A80036; stroke-width: 1.0;" x1="324.5" x2="334.5" y1="1446.7266" y2="1450.7266"/><line style="stroke: #A80036; stroke-width: 1.0;" x1="324.5" x2="623.5" y1="1446.7266" y2="1446.7266"/><text fill="#000000" font-family="sans-serif" font-size="13" lengthAdjust="spacingAndGlyphs" textLength="152" x="341.5" y="1441.6606">DfmQueryResponse::Ok</text><polygon fill="#A80036" points="99.5,1471.8594,89.5,1475.8594,99.5,1479.8594,95.5,1475.8594" style="stroke: #A80036; stroke-width: 1.0;"/><line style="stroke: #A80036; stroke-width: 1.0; stroke-dasharray: 2.0,2.0;" x1="93.5" x2="323.5" y1="1475.8594" y2="1475.8594"/><text fill="#000000" font-family="sans-serif" font-size="13" lengthAdjust="spacingAndGlyphs" textLength="37" x="105.5" y="1470.7935">Ok(())</text><rect fill="#EEEEEE" filter="url(#f44f4zkr1to7j)" height="3" style="stroke: #EEEEEE; stroke-width: 1.0;" width="1141" x="3" y="1504.4258"/><line style="stroke: #000000; stroke-width: 1.0;" x1="3" x2="1144" y1="1504.4258" y2="1504.4258"/><line style="stroke: #000000; stroke-width: 1.0;" x1="3" x2="1144" y1="1507.4258" y2="1507.4258"/><rect fill="#EEEEEE" filter="url(#f44f4zkr1to7j)" height="23.1328" style="stroke: #000000; stroke-width: 2.0;" width="175" x="486" y="1493.8594"/><text fill="#000000" font-family="sans-serif" font-size="13" font-weight="bold" lengthAdjust="spacingAndGlyphs" textLength="156" x="492" y="1509.9263">Error: Storage failure</text><polygon fill="#A80036" points="312.5,1544.125,322.5,1548.125,312.5,1552.125,316.5,1548.125" style="stroke: #A80036; stroke-width: 1.0;"/><line style="stroke: #A80036; stroke-width: 1.0;" x1="88.5" x2="318.5" y1="1548.125" y2="1548.125"/><text fill="#000000" font-family="sans-serif" font-size="13" lengthAdjust="spacingAndGlyphs" textLength="153" x="95.5" y="1543.0591">delete_fault(path, code)</text><line style="stroke: #A80036; stroke-width: 1.0;" x1="622.5" x2="612.5" y1="1577.2578" y2="1573.2578"/><line style="stroke: #A80036; stroke-width: 1.0;" x1="622.5" x2="612.5" y1="1577.2578" y2="1581.2578"/><line style="stroke: #A80036; stroke-width: 1.0;" x1="324.5" x2="623.5" y1="1577.2578" y2="1577.2578"/><text fill="#000000" font-family="sans-serif" font-size="13" lengthAdjust="spacingAndGlyphs" textLength="276" x="331.5" y="1572.1919">DfmQueryRequest::DeleteFault(path, code)</text><polygon fill="#A80036" points="845.5,1602.3906,855.5,1606.3906,845.5,1610.3906,849.5,1606.3906" style="stroke: #A80036; stroke-width: 1.0;"/><line style="stroke: #A80036; stroke-width: 1.0;" x1="624.5" x2="851.5" y1="1606.3906" y2="1606.3906"/><text fill="#000000" font-family="sans-serif" font-size="13" lengthAdjust="spacingAndGlyphs" textLength="153" x="631.5" y="1601.3247">delete_fault(path, code)</text><polygon fill="#A80036" points="1037.5,1631.5234,1047.5,1635.5234,1037.5,1639.5234,1041.5,1635.5234" style="stroke: #A80036; stroke-width: 1.0;"/><line style="stroke: #A80036; stroke-width: 1.0;" x1="857.5" x2="1043.5" y1="1635.5234" y2="1635.5234"/><text fill="#000000" font-family="sans-serif" font-size="13" lengthAdjust="spacingAndGlyphs" textLength="109" x="864.5" y="1630.4575">delete fault state</text><polygon fill="#A80036" points="868.5,1660.6563,858.5,1664.6563,868.5,1668.6563,864.5,1664.6563" style="stroke: #A80036; stroke-width: 1.0;"/><line style="stroke: #A80036; stroke-width: 1.0; stroke-dasharray: 2.0,2.0;" x1="862.5" x2="1048.5" y1="1664.6563" y2="1664.6563"/><text fill="#000000" font-family="sans-serif" font-size="13" lengthAdjust="spacingAndGlyphs" textLength="110" x="874.5" y="1659.5903">Err(StorageError)</text><polygon fill="#A80036" points="635.5,1689.7891,625.5,1693.7891,635.5,1697.7891,631.5,1693.7891" style="stroke: #A80036; stroke-width: 1.0;"/><line style="stroke: #A80036; stroke-width: 1.0; stroke-dasharray: 2.0,2.0;" x1="629.5" x2="856.5" y1="1693.7891" y2="1693.7891"/><text fill="#000000" font-family="sans-serif" font-size="13" lengthAdjust="spacingAndGlyphs" textLength="117" x="641.5" y="1688.7231">Err(Storage(msg))</text><line style="stroke: #A80036; stroke-width: 1.0;" x1="624.5" x2="666.5" y1="1722.9219" y2="1722.9219"/><line style="stroke: #A80036; stroke-width: 1.0;" x1="666.5" x2="666.5" y1="1722.9219" y2="1735.9219"/><line style="stroke: #A80036; stroke-width: 1.0;" x1="625.5" x2="666.5" y1="1735.9219" y2="1735.9219"/><polygon fill="#A80036" points="635.5,1731.9219,625.5,1735.9219,635.5,1739.9219,631.5,1735.9219" style="stroke: #A80036; stroke-width: 1.0;"/><text fill="#000000" font-family="sans-serif" font-size="13" lengthAdjust="spacingAndGlyphs" textLength="219" x="631.5" y="1717.856">truncate msg to ShortString (64B)</text><line style="stroke: #A80036; stroke-width: 1.0;" x1="324.5" x2="334.5" y1="1780.1875" y2="1776.1875"/><line style="stroke: #A80036; stroke-width: 1.0;" x1="324.5" x2="334.5" y1="1780.1875" y2="1784.1875"/><line style="stroke: #A80036; stroke-width: 1.0;" x1="324.5" x2="623.5" y1="1780.1875" y2="1780.1875"/><text fill="#000000" font-family="sans-serif" font-size="13" lengthAdjust="spacingAndGlyphs" textLength="166" x="341.5" y="1759.9888">DfmQueryResponse::Error</text><text fill="#000000" font-family="sans-serif" font-size="13" lengthAdjust="spacingAndGlyphs" textLength="196" x="341.5" y="1775.1216">(DfmQueryError::StorageError)</text><polygon fill="#A80036" points="99.5,1805.3203,89.5,1809.3203,99.5,1813.3203,95.5,1809.3203" style="stroke: #A80036; stroke-width: 1.0;"/><line style="stroke: #A80036; stroke-width: 1.0; stroke-dasharray: 2.0,2.0;" x1="93.5" x2="323.5" y1="1809.3203" y2="1809.3203"/><text fill="#000000" font-family="sans-serif" font-size="13" lengthAdjust="spacingAndGlyphs" textLength="156" x="105.5" y="1804.2544">Err(Error::Storage(msg))</text><!--MD5=[886758fc22c9f591d07b4f7c893eedb2]
@startuml
title DFM Query/Clear IPC Protocol
skinparam ParticipantPadding 20

box "External Process\n(e.g. OpenSOVD adapter)"
participant "Diagnostic\nClient" as Client
participant Iceoryx2DfmQuery
end box
box "DFM Process"
participant "DfmQueryServer\n(polled in DFM loop)" as Server
participant SovdFaultManager
participant SovdFaultStorage
end box

== Setup ==

note over Server
    DfmQueryServer created inside
    fault_lib_receiver_thread when
    enable_query_server = true.
    Service: "dfm/query" (request-response).
end note

Client -> Iceoryx2DfmQuery : new()\nconnects to "dfm/query" service

== Query: GetAllFaults ==

Client -> Iceoryx2DfmQuery : get_all_faults(entity_path)
Iceoryx2DfmQuery -> Iceoryx2DfmQuery : path -> LongString (128B)\n(rejects if too long)
Iceoryx2DfmQuery ->> Server : IPC send (default: iceoryx2)\nDfmQueryRequest::GetAllFaults(path)
Iceoryx2DfmQuery -> Iceoryx2DfmQuery : poll response\n(1s timeout, 10ms interval)

Server -> Server : poll() receives request
Server -> SovdFaultManager : get_all_faults(path)
SovdFaultManager -> SovdFaultStorage : read fault states
SovdFaultManager - -> Server : Vec<SovdFault>
Server -> Server : convert to IpcSovdFault\n(lossy: String->ShortString,\nHashMap omitted)
Server ->> Iceoryx2DfmQuery : DfmQueryResponse::FaultList\n(max 64 faults per response)

Iceoryx2DfmQuery -> Iceoryx2DfmQuery : convert IpcSovdFault -> SovdFault
Client <- - Iceoryx2DfmQuery : Ok(Vec<SovdFault>)

== Query: GetFault ==

Client -> Iceoryx2DfmQuery : get_fault(entity_path, fault_code)
Iceoryx2DfmQuery ->> Server : DfmQueryRequest::GetFault(path, code)

Server -> SovdFaultManager : get_fault(path, code)

alt Fault found
    SovdFaultManager - -> Server : Ok((SovdFault, env_data))
    Server ->> Iceoryx2DfmQuery : DfmQueryResponse::SingleFault\n(IpcSovdFault, IpcEnvData)
    Client <- - Iceoryx2DfmQuery : Ok((SovdFault, env_data))
else Fault not found
    SovdFaultManager - -> Server : Err(NotFound)
    Server ->> Iceoryx2DfmQuery : DfmQueryResponse::Error\n(DfmQueryError::NotFound)
    Client <- - Iceoryx2DfmQuery : Err(Error::NotFound)
end

== Clear: DeleteAllFaults ==

Client -> Iceoryx2DfmQuery : delete_all_faults(entity_path)
Iceoryx2DfmQuery ->> Server : DfmQueryRequest::DeleteAllFaults(path)

Server -> SovdFaultManager : delete_all_faults(path)
SovdFaultManager -> SovdFaultStorage : clear all fault states
SovdFaultManager - -> Server : Ok(())
Server ->> Iceoryx2DfmQuery : DfmQueryResponse::Ok
Client <- - Iceoryx2DfmQuery : Ok(())

== Error: Storage failure ==

Client -> Iceoryx2DfmQuery : delete_fault(path, code)
Iceoryx2DfmQuery ->> Server : DfmQueryRequest::DeleteFault(path, code)
Server -> SovdFaultManager : delete_fault(path, code)
SovdFaultManager -> SovdFaultStorage : delete fault state
SovdFaultStorage - -> SovdFaultManager : Err(StorageError)
SovdFaultManager - -> Server : Err(Storage(msg))
Server -> Server : truncate msg to ShortString (64B)
Server ->> Iceoryx2DfmQuery : DfmQueryResponse::Error\n(DfmQueryError::StorageError)
Client <- - Iceoryx2DfmQuery : Err(Error::Storage(msg))

@enduml

PlantUML version 1.2020.02(Sun Mar 01 11:22:07 CET 2020)
(GPL source distribution)
Java Runtime: OpenJDK Runtime Environment
JVM: OpenJDK 64-Bit Server VM
Java Version: 21.0.10+7-Debian-1deb13u1
Operating System: Linux
Default Encoding: UTF-8
Language: en
Country: US
--></g></svg>