<svg xmlns="http://www.w3.org/2000/svg" xmlns:xlink="http://www.w3.org/1999/xlink" contentStyleType="text/css" data-diagram-type="SEQUENCE" height="736px" preserveAspectRatio="none" style="width:936px;height:736px;background:#FFFFFF;" version="1.1" viewBox="0 0 936 736" width="936px" zoomAndPan="magnify"><defs/><g><rect fill="none" height="203.9421" style="stroke:#000000;stroke-width:1.5;" width="909.1072" x="10" y="228.598"/><g><title>App</title><rect fill="#000000" fill-opacity="0.00000" height="659.4143" width="8" x="36.083" y="39.0679"/><line style="stroke:#181818;stroke-width:0.5;stroke-dasharray:5,5;" x1="40" x2="40" y1="39.0679" y2="698.4822"/></g><g><title>FaultMonitor</title><rect fill="#000000" fill-opacity="0.00000" height="659.4143" width="8" x="209.6481" y="39.0679"/><line style="stroke:#181818;stroke-width:0.5;stroke-dasharray:5,5;" x1="213.0603" x2="213.0603" y1="39.0679" y2="698.4822"/></g><g><title>FaultLib</title><rect fill="#000000" fill-opacity="0.00000" height="659.4143" width="8" x="410.0563" y="39.0679"/><line style="stroke:#181818;stroke-width:0.5;stroke-dasharray:5,5;" x1="413.0584" x2="413.0584" y1="39.0679" y2="698.4822"/></g><g><title>DiagFaultMgr</title><rect fill="#000000" fill-opacity="0.00000" height="659.4143" width="8" x="720.4855" y="39.0679"/><line style="stroke:#181818;stroke-width:0.5;stroke-dasharray:5,5;" x1="723.5737" x2="723.5737" y1="39.0679" y2="698.4822"/></g><g class="participant participant-head" data-participant="App"><rect fill="#E2E2F0" height="33.0679" rx="2.5" ry="2.5" style="stroke:#181818;stroke-width:0.5;" width="40.1659" x="20" y="5"/><text fill="#000000" font-family="sans-serif" font-size="14" lengthAdjust="spacing" textLength="26.1659" x="27" y="26.9659">App</text></g><g class="participant participant-tail" data-participant="App"><rect fill="#E2E2F0" height="33.0679" rx="2.5" ry="2.5" style="stroke:#181818;stroke-width:0.5;" width="40.1659" x="20" y="697.4822"/><text fill="#000000" font-family="sans-serif" font-size="14" lengthAdjust="spacing" textLength="26.1659" x="27" y="719.4482">App</text></g><g class="participant participant-head" data-participant="FaultMonitor"><rect fill="#E2E2F0" height="33.0679" rx="2.5" ry="2.5" style="stroke:#181818;stroke-width:0.5;" width="99.1757" x="164.0603" y="5"/><text fill="#000000" font-family="sans-serif" font-size="14" lengthAdjust="spacing" textLength="85.1757" x="171.0603" y="26.9659">FaultMonitor</text></g><g class="participant participant-tail" data-participant="FaultMonitor"><rect fill="#E2E2F0" height="33.0679" rx="2.5" ry="2.5" style="stroke:#181818;stroke-width:0.5;" width="99.1757" x="164.0603" y="697.4822"/><text fill="#000000" font-family="sans-serif" font-size="14" lengthAdjust="spacing" textLength="85.1757" x="171.0603" y="719.4482">FaultMonitor</text></g><g class="participant participant-head" data-participant="FaultLib"><rect fill="#E2E2F0" height="33.0679" rx="2.5" ry="2.5" style="stroke:#181818;stroke-width:0.5;" width="65.9958" x="381.0584" y="5"/><text fill="#000000" font-family="sans-serif" font-size="14" lengthAdjust="spacing" textLength="51.9958" x="388.0584" y="26.9659">FaultLib</text></g><g class="participant participant-tail" data-participant="FaultLib"><rect fill="#E2E2F0" height="33.0679" rx="2.5" ry="2.5" style="stroke:#181818;stroke-width:0.5;" width="65.9958" x="381.0584" y="697.4822"/><text fill="#000000" font-family="sans-serif" font-size="14" lengthAdjust="spacing" textLength="51.9958" x="388.0584" y="719.4482">FaultLib</text></g><g class="participant participant-head" data-participant="DiagFaultMgr"><rect fill="#E2E2F0" height="33.0679" rx="2.5" ry="2.5" style="stroke:#181818;stroke-width:0.5;" width="103.8237" x="672.5737" y="5"/><text fill="#000000" font-family="sans-serif" font-size="14" lengthAdjust="spacing" textLength="89.8237" x="679.5737" y="26.9659">DiagFaultMgr</text></g><g class="participant participant-tail" data-participant="DiagFaultMgr"><rect fill="#E2E2F0" height="33.0679" rx="2.5" ry="2.5" style="stroke:#181818;stroke-width:0.5;" width="103.8237" x="672.5737" y="697.4822"/><text fill="#000000" font-family="sans-serif" font-size="14" lengthAdjust="spacing" textLength="89.8237" x="679.5737" y="719.4482">DiagFaultMgr</text></g><rect fill="#EEEEEE" height="3" style="stroke:#EEEEEE;stroke-width:1;" width="929.1072" x="0" y="70.9209"/><line style="stroke:#000000;stroke-width:1;" x1="0" x2="929.1072" y1="70.9209" y2="70.9209"/><line style="stroke:#000000;stroke-width:1;" x1="0" x2="929.1072" y1="73.9209" y2="73.9209"/><rect fill="#EEEEEE" height="25.706" style="stroke:#000000;stroke-width:2;" width="69.731" x="429.6881" y="59.0679"/><text fill="#000000" font-family="sans-serif" font-size="13" font-weight="bold" lengthAdjust="spacing" textLength="52.351" x="435.6881" y="76.9649">Start up</text><g class="message" data-participant-1="FaultLib" data-participant-2="DiagFaultMgr"><polygon fill="#181818" points="712.4855,114.4799,722.4855,118.4799,712.4855,122.4799,716.4855,118.4799" style="stroke:#181818;stroke-width:1;"/><line style="stroke:#181818;stroke-width:1;" x1="414.0563" x2="718.4855" y1="118.4799" y2="118.4799"/><text fill="#000000" font-family="sans-serif" font-size="13" lengthAdjust="spacing" textLength="210.0542" x="421.0563" y="112.6709">ipc::subscribeEnablingConditions()</text></g><g class="message" data-participant-1="DiagFaultMgr" data-participant-2="FaultLib"><polygon fill="#181818" points="425.0563,146.186,415.0563,150.186,425.0563,154.186,421.0563,150.186" style="stroke:#181818;stroke-width:1;"/><line style="stroke:#181818;stroke-width:1;" x1="419.0563" x2="723.4855" y1="150.186" y2="150.186"/><text fill="#000000" font-family="sans-serif" font-size="13" lengthAdjust="spacing" textLength="194.6622" x="431.0563" y="144.377">ipc::ntfEnablingConditions(list[])</text></g><g class="message" data-participant-1="App" data-participant-2="FaultLib"><polygon fill="#181818" points="402.0563,177.892,412.0563,181.892,402.0563,185.892,406.0563,181.892" style="stroke:#181818;stroke-width:1;"/><line style="stroke:#181818;stroke-width:1;" x1="40.083" x2="408.0563" y1="181.892" y2="181.892"/><text fill="#000000" font-family="sans-serif" font-size="13" lengthAdjust="spacing" textLength="349.9733" x="47.083" y="176.083">get_fault(sovd_path,id,debouncing,enabling_conditions[])</text></g><g class="message" data-participant-1="FaultLib" data-participant-2="DiagFaultMgr"><polygon fill="#181818" points="712.4855,209.598,722.4855,213.598,712.4855,217.598,716.4855,213.598" style="stroke:#181818;stroke-width:1;"/><line style="stroke:#181818;stroke-width:1;" x1="414.0563" x2="718.4855" y1="213.598" y2="213.598"/><text fill="#000000" font-family="sans-serif" font-size="13" lengthAdjust="spacing" textLength="286.4293" x="421.0563" y="207.789">register_fault(sovd_path,enabling_conditions[])</text></g><path d="M10,228.598 L72.459,228.598 L72.459,238.304 L62.459,248.304 L10,248.304 L10,228.598" fill="#EEEEEE" style="stroke:#000000;stroke-width:1.5;"/><rect fill="none" height="203.9421" style="stroke:#000000;stroke-width:1.5;" width="909.1072" x="10" y="228.598"/><text fill="#000000" font-family="sans-serif" font-size="13" font-weight="bold" lengthAdjust="spacing" textLength="17.459" x="25" y="243.495">alt</text><text fill="#000000" font-family="sans-serif" font-size="11" font-weight="bold" lengthAdjust="spacing" textLength="3.641" x="87.459" y="242.3569">[</text><a href="Fault already registered" target="_top" title="Fault already registered" xlink:actuate="onRequest" xlink:href="Fault already registered" xlink:show="new" xlink:title="Fault already registered" xlink:type="simple"><text fill="#0000FF" font-family="sans-serif" font-size="11" font-weight="bold" lengthAdjust="spacing" text-decoration="underline" textLength="132.131" x="91.1" y="242.3569">Fault already registered</text></a><text fill="#000000" font-family="sans-serif" font-size="11" font-weight="bold" lengthAdjust="spacing" textLength="3.641" x="223.231" y="242.3569">]</text><path d="M729,253.304 L729,298.304 L909,298.304 L909,263.304 L899,253.304 L729,253.304" fill="#FEFFDD" style="stroke:#181818;stroke-width:0.5;"/><path d="M899,253.304 L899,263.304 L909,263.304 L899,253.304" fill="#FEFFDD" style="stroke:#181818;stroke-width:0.5;"/><text fill="#000000" font-family="sans-serif" font-size="13" lengthAdjust="spacing" textLength="145.1451" x="735" y="272.201">Fault already registered</text><text fill="#000000" font-family="sans-serif" font-size="13" lengthAdjust="spacing" textLength="159.1072" x="735" y="289.907">or other conditions not ok</text><g class="message" data-participant-1="DiagFaultMgr" data-participant-2="FaultLib"><polygon fill="#181818" points="425.0563,323.4221,415.0563,327.4221,425.0563,331.4221,421.0563,327.4221" style="stroke:#181818;stroke-width:1;"/><line style="stroke:#181818;stroke-width:1;stroke-dasharray:2,2;" x1="419.0563" x2="723.4855" y1="327.4221" y2="327.4221"/><text fill="#000000" font-family="sans-serif" font-size="13" lengthAdjust="spacing" textLength="39" x="431.0563" y="321.6131">Error()</text></g><g class="message" data-participant-1="FaultLib" data-participant-2="App"><polygon fill="#181818" points="51.083,355.1281,41.083,359.1281,51.083,363.1281,47.083,359.1281" style="stroke:#181818;stroke-width:1;"/><line style="stroke:#181818;stroke-width:1;stroke-dasharray:2,2;" x1="45.083" x2="413.0563" y1="359.1281" y2="359.1281"/><text fill="#000000" font-family="sans-serif" font-size="13" lengthAdjust="spacing" textLength="33.111" x="57.083" y="353.3191">None</text></g><line style="stroke:#000000;stroke-width:1;stroke-dasharray:2,2;" x1="10" x2="919.1072" y1="368.1281" y2="368.1281"/><g class="message" data-participant-1="DiagFaultMgr" data-participant-2="FaultLib"><polygon fill="#181818" points="425.0563,388.8341,415.0563,392.8341,425.0563,396.8341,421.0563,392.8341" style="stroke:#181818;stroke-width:1;"/><line style="stroke:#181818;stroke-width:1;stroke-dasharray:2,2;" x1="419.0563" x2="723.4855" y1="392.8341" y2="392.8341"/><text fill="#000000" font-family="sans-serif" font-size="13" lengthAdjust="spacing" textLength="69.8621" x="431.0563" y="387.0251">Ok(fault_id)</text></g><g class="message" data-participant-1="FaultLib" data-participant-2="App"><polygon fill="#181818" points="51.083,420.5401,41.083,424.5401,51.083,428.5401,47.083,424.5401" style="stroke:#181818;stroke-width:1;"/><line style="stroke:#181818;stroke-width:1;stroke-dasharray:2,2;" x1="45.083" x2="413.0563" y1="424.5401" y2="424.5401"/><text fill="#000000" font-family="sans-serif" font-size="13" lengthAdjust="spacing" textLength="132.2491" x="57.083" y="418.7311">Some&lt;Fault(fault_id)&gt;</text></g><g class="message" data-participant-1="App" data-participant-2="FaultMonitor"><polygon fill="#181818" points="201.6481,459.2461,211.6481,463.2461,201.6481,467.2461,205.6481,463.2461" style="stroke:#181818;stroke-width:1;"/><line style="stroke:#181818;stroke-width:1;" x1="40.083" x2="207.6481" y1="463.2461" y2="463.2461"/><text fill="#000000" font-family="sans-serif" font-size="13" lengthAdjust="spacing" textLength="149.5652" x="47.083" y="457.4371">FaultMonitor::new(Fault)</text></g><g class="message" data-participant-1="FaultMonitor" data-participant-2="FaultLib"><polygon fill="#181818" points="402.0563,490.9521,412.0563,494.9521,402.0563,498.9521,406.0563,494.9521" style="stroke:#181818;stroke-width:1;"/><line style="stroke:#181818;stroke-width:1;" x1="213.6481" x2="408.0563" y1="494.9521" y2="494.9521"/><text fill="#000000" font-family="sans-serif" font-size="13" lengthAdjust="spacing" textLength="55.4711" x="220.6481" y="489.1431">register()</text></g><g class="message" data-participant-1="FaultLib" data-participant-2="FaultLib"><line style="stroke:#181818;stroke-width:1;" x1="414.0563" x2="456.0563" y1="526.6582" y2="526.6582"/><line style="stroke:#181818;stroke-width:1;" x1="456.0563" x2="456.0563" y1="526.6582" y2="539.6582"/><line style="stroke:#181818;stroke-width:1;" x1="415.0563" x2="456.0563" y1="539.6582" y2="539.6582"/><polygon fill="#181818" points="425.0563,535.6582,415.0563,539.6582,425.0563,543.6582,421.0563,539.6582" style="stroke:#181818;stroke-width:1;"/><text fill="#000000" font-family="sans-serif" font-size="13" lengthAdjust="spacing" textLength="122.2391" x="421.0563" y="520.8492">store(fault_monitor)</text></g><rect fill="#EEEEEE" height="3" style="stroke:#EEEEEE;stroke-width:1;" width="929.1072" x="0" y="569.5112"/><line style="stroke:#000000;stroke-width:1;" x1="0" x2="929.1072" y1="569.5112" y2="569.5112"/><line style="stroke:#000000;stroke-width:1;" x1="0" x2="929.1072" y1="572.5112" y2="572.5112"/><rect fill="#EEEEEE" height="25.706" style="stroke:#000000;stroke-width:2;" width="147.5231" x="390.792" y="557.6582"/><text fill="#000000" font-family="sans-serif" font-size="13" font-weight="bold" lengthAdjust="spacing" textLength="130.1431" x="396.792" y="575.5552">App Reporting Fault</text><g class="message" data-participant-1="App" data-participant-2="FaultMonitor"><polygon fill="#181818" points="201.6481,613.0702,211.6481,617.0702,201.6481,621.0702,205.6481,617.0702" style="stroke:#181818;stroke-width:1;"/><line style="stroke:#181818;stroke-width:1;" x1="40.083" x2="207.6481" y1="617.0702" y2="617.0702"/><text fill="#000000" font-family="sans-serif" font-size="13" lengthAdjust="spacing" textLength="140.4131" x="47.083" y="611.2612">report_status(pass/fail)</text></g><g class="message" data-participant-1="FaultMonitor" data-participant-2="FaultLib"><polygon fill="#181818" points="402.0563,644.7762,412.0563,648.7762,402.0563,652.7762,406.0563,648.7762" style="stroke:#181818;stroke-width:1;"/><line style="stroke:#181818;stroke-width:1;" x1="213.6481" x2="408.0563" y1="648.7762" y2="648.7762"/><text fill="#000000" font-family="sans-serif" font-size="13" lengthAdjust="spacing" textLength="135.4211" x="220.6481" y="642.9672">report(fault_id, status)</text></g><g class="message" data-participant-1="FaultLib" data-participant-2="DiagFaultMgr"><polygon fill="#181818" points="712.4855,676.4822,722.4855,680.4822,712.4855,684.4822,716.4855,680.4822" style="stroke:#181818;stroke-width:1;"/><line style="stroke:#181818;stroke-width:1;" x1="414.0563" x2="718.4855" y1="680.4822" y2="680.4822"/><text fill="#000000" font-family="sans-serif" font-size="13" lengthAdjust="spacing" textLength="202.9172" x="421.0563" y="674.6732">ipc::report_fault_status(id, status)</text></g><!--SRC=[ZPFBReCm44Nt_efHLbWYwXubaQesNVKXDSieGWOFn0gnBTkqwj_NDeI0ycXP8CQUUsQu7cjcd2Y5PjB1ezP4Z-8NrZRkJKdXbBdSU1N5PF5PiBfJr8QGvH8spkz2gy5_4tBIm7mrIOKCX2wppBQ5BOqeS2rPqGXPFod9XHDAseIUrOlvLRLqrHLT8wpRxYWX_iz2tO6IGOqkhqAOMFN5SytSFXKyvLYeLfOUasBFoyi165Xt_iDWxGkYkG3VG17MEDXkOHOPm1g3ZFyC6EGpsEs8L0x1Y7hlG5LJby4_jxHnKnbGRey6peN1yq0TuZPA3X5_9dKUNvYyDaQPX7Q9yHKi3OaZJz-LH8AD_GVluv14atB1wItSHXrn4UDpxeg4dgS7sa-eLun3FnFudSGLsa_VAN4w2IVBakdPZZAi5s7Vmx5Zq3ZXeOjFrCfV0bdt9n67_Nfx9gRcrZ7NsaGpQnyg9XfwlxkW6Gn8eLFJF-zJNwmJzYN7Ul8B]--></g></svg>